<svg width="63" height="89" viewBox="0 0 63 89" fill="none" xmlns="http://www.w3.org/2000/svg">
<path d="M50.4643 33.6071C46.25 23.0714 50.4643 2 31.5 2C12.5357 2 16.75 23.0714 12.5357 31.5C8.32143 39.9286 2 46.25 2 58.8929C2 77.8571 17.8036 86.2857 31.5 86.2857C45.1964 86.2857 61 77.8571 61 58.8929C61 48.3571 54.6786 44.1429 50.4643 33.6071Z" stroke="#EE790E" stroke-width="4"/>
<path d="M44.1428 56.7857C44.1428 60.1388 42.8108 63.3545 40.4398 65.7255C38.0688 68.0965 34.8531 69.4285 31.5 69.4285C28.1469 69.4285 24.9311 68.0965 22.5601 65.7255C20.1891 63.3545 18.8571 60.1388 18.8571 56.7857C18.8571 49.8026 24.5169 40.9821 31.5 40.9821C38.483 40.9821 44.1428 49.8026 44.1428 56.7857Z" fill="#EE790E" stroke="#EE790E" stroke-width="4"/>
</svg>
