<svg width="95" height="120" viewBox="0 0 95 120" fill="none" xmlns="http://www.w3.org/2000/svg">
<path d="M47.5 77.5C31 77.5 17.5 64 17.5 47.5C17.5 31 31 17.5 47.5 17.5C64 17.5 77.5 31 77.5 47.5C77.5 64 64 77.5 47.5 77.5ZM47.5 22.5C33.75 22.5 22.5 33.75 22.5 47.5C22.5 61.25 33.75 72.5 47.5 72.5C61.25 72.5 72.5 61.25 72.5 47.5C72.5 33.75 61.25 22.5 47.5 22.5Z" fill="#622B0A"/>
<path d="M47.5 95C44.25 95 42 92.25 40.25 89.5C39.25 88.25 38 86.5 37.25 86.25C36.5 86 34.25 87 32.75 87.5C29.75 88.75 26.5 90 24 88.5C21.25 87 20.75 83.5 20.5 80.25C20.25 78.75 20 76.25 19.5 75.75C19 75.25 16.5 74.75 15 74.75C12 74.25 8.25 74 6.75 71.25C5.25 68.5 6.5 65.25 7.75 62.5C8.5 61 9.25 58.75 9 58C8.75 57.25 7 55.75 5.75 55C2.75 53 0 50.75 0 47.5C0 44.25 2.75 42 5.5 40.25C6.75 39.25 8.5 38 8.75 37.25C9 36.5 8 34.25 7.5 32.75C6.25 29.75 5 26.5 6.5 24C8 21.25 11.5 20.75 14.75 20.5C16.25 20 18.5 19.75 19 19C19.75 18.5 20 16.25 20.25 14.5C20.75 11.5 21 7.75 23.75 6.25C26.5 4.75 29.75 6 32.5 7.25C34 8 36.25 8.75 37 8.5C37.75 8.25 39.25 6.5 40 5.25C42 2.75 44.25 0 47.5 0C50.75 0 53 2.75 54.75 5.5C55.75 6.75 57 8.5 57.75 8.75C58.5 9 60.75 8 62.25 7.5C65.25 6.25 68.5 5 71 6.5C73.75 8 74.25 11.5 74.5 14.75C74.75 16.25 75 18.75 75.5 19.25C76 19.75 78.5 20.25 80 20.25C83 20.75 86.75 21 88.25 23.75C89.75 26.5 88.5 29.75 87.25 32.5C86.5 34 85.75 36.25 86 37C86.25 37.75 88 39.25 89.25 40C91.75 42 94.75 44 94.75 47.25C94.75 50.5 92 52.75 89.25 54.5C88 55.5 86.25 56.75 86 57.5C85.75 58.25 86.75 60.5 87.25 62C88.5 65 89.75 68.25 88.25 70.75C86.75 73.5 83.25 74 80 74.25C78.5 74.5 76 74.75 75.5 75.25C75 75.75 74.5 78.25 74.5 79.75C74 82.75 73.75 86.5 71 88C68.25 89.5 65 88.25 62.25 87C60.75 86.25 58.5 85.5 57.75 85.75C57 86 55.5 87.75 54.75 89C53 92.25 50.75 95 47.5 95ZM36.75 81.25C37.25 81.25 37.75 81.25 38.25 81.5C40.75 82.25 42.25 84.5 44 86.5C45 87.75 46.5 90 47.25 90C48 90 49.75 87.75 50.5 86.5C52.25 84.25 53.75 82 56.25 81.5C58.75 80.75 61.5 82 64 83C65.25 83.5 67.75 84.5 68.5 84.25C69 84 69.5 81 69.75 79.75C70 77 70.5 74.25 72.25 72.5C74 70.75 77 70.25 79.75 70C81 69.75 84 69.5 84.25 68.75C84.5 68.25 83.5 65.5 83 64.25C82 61.75 80.75 59 81.5 56.5C82.25 54 84.5 52.5 86.5 50.75C87.75 49.75 90 48.25 90 47.5C90 46.75 87.75 45 86.5 44.25C84.25 42.5 82 41 81.5 38.5C80.75 36 82 33.25 83 30.75C83.5 29.5 84.5 27 84.25 26.25C84 25.75 81 25.25 79.75 25C77 24.75 74.25 24.25 72.5 22.5C70.75 20.75 70.25 17.75 70 15C69.75 13.75 69.5 10.75 68.75 10.5C68.25 10.25 65.5 11.25 64.25 11.75C61.75 12.75 59 14 56.5 13.25C54 12.5 52.5 10.25 50.75 8.25C50 7.25 48.25 5 47.5 5C46.75 5 45 7.25 44.25 8.5C42.5 10.75 41 13 38.5 13.5C36 14.25 33.25 13 30.75 12C29.5 11.5 27 10.5 26.25 10.75C25.75 11 25.25 14 25 15.25C24.75 18 24.5 20.75 22.5 22.5C20.75 24.25 17.75 24.75 15 25C13.75 25.25 10.75 25.5 10.5 26.25C10.25 26.75 11.25 29.5 11.75 30.75C12.75 33.25 14 36 13.25 38.5C12.5 41 10.25 42.5 8.25 44.25C7.25 45 5 46.75 5 47.5C5 48.25 7.25 50 8.5 50.75C10.75 52.5 13 54 13.5 56.5C14.25 59 13 61.75 12 64.25C11.5 65.5 10.5 68 10.75 68.75C11 69.25 14 69.75 15.25 70C18 70.25 20.75 70.75 22.5 72.5C24.25 74.25 24.75 77.25 25 80C25.25 81.25 25.5 84.25 26.25 84.5C26.75 84.75 29.5 83.75 30.75 83.25C32.75 82.25 34.75 81.25 36.75 81.25Z" fill="#622B0A"/>
<path d="M32.5001 120C31.5001 120 30.7501 119.5 30.2501 118.5L23.5001 105L7.75015 107.5C6.75015 107.75 6.00015 107.25 5.25015 106.5C4.75015 105.75 4.75015 104.75 5.00015 104L19.7501 76.5C20.5001 75.25 22.0001 74.75 23.2501 75.5C24.5001 76.25 25.0001 77.75 24.2501 79L12.0002 102.25L24.5001 100.5C25.5001 100.25 26.5001 101 27.0001 101.75L32.2501 112.5L43.2501 91.75C44.0001 90.5 45.5001 90 46.7501 90.75C48.0001 91.5 48.5001 93 47.7501 94.25L34.5001 119.25C34.2501 119.5 33.5001 120 32.5001 120Z" fill="#622B0A"/>
<path d="M62.4998 120C61.4998 120 60.7498 119.5 60.2498 118.75L46.9998 93.75C46.2498 92.5 46.7498 91 47.9998 90.25C49.2498 89.5 50.7498 90 51.4998 91.25L62.4998 112L67.7498 101.25C68.2498 100.25 69.2498 99.75 70.2498 100L82.7498 101.75L70.4998 78.5C69.7498 77.25 70.2498 75.75 71.4998 75C72.7498 74.25 74.2498 74.75 74.9998 76L89.7498 103.5C90.2498 104.25 90.2498 105.25 89.4998 106C88.9998 106.75 87.9998 107.25 86.9998 107L71.2498 104.75L64.4998 118.25C64.2498 119.5 63.4998 120 62.4998 120Z" fill="#622B0A"/>
<path d="M47.5 67.5C36.5 67.5 27.5 58.5 27.5 47.5C27.5 36.5 36.5 27.5 47.5 27.5C58.5 27.5 67.5 36.5 67.5 47.5C67.5 58.5 58.5 67.5 47.5 67.5ZM47.5 32.5C39.25 32.5 32.5 39.25 32.5 47.5C32.5 55.75 39.25 62.5 47.5 62.5C55.75 62.5 62.5 55.75 62.5 47.5C62.5 39.25 55.75 32.5 47.5 32.5Z" fill="#622B0A"/>
</svg>
