<svg width="85" height="114" viewBox="0 0 85 114" fill="none" xmlns="http://www.w3.org/2000/svg">
<g clip-path="url(#clip0_2_1483)">
<path d="M80.1704 39.814L50.57 16.67C48.1708 14.7934 45.1796 13.8239 42.1573 13.949C40.7863 14.0115 39.4776 14.2617 38.2001 14.7309C38.8233 7.78765 41.2848 4.15967 42.5312 4.15967C43.5282 4.15967 45.46 6.5679 46.426 11.7284C46.5194 12.2601 46.831 12.7605 47.2984 13.0733C47.7658 13.386 48.2955 13.5111 48.8563 13.386C49.386 13.2922 49.8845 12.9794 50.1961 12.5103C50.5077 12.0412 50.6323 11.5095 50.5077 10.9465C49.2302 4.09712 46.239 0 42.5312 0C37.0473 0 34.0561 8.6321 33.9315 17.2642L5.07881 39.6889C1.99413 42.0971 0.218109 45.7251 0.218109 49.6346L0 106.556C0 108.527 0.747801 110.372 2.11877 111.748C3.48974 113.124 5.32808 113.906 7.29106 113.906L77.4908 114.031C81.5103 114.031 84.7819 110.747 84.8131 106.713L84.9688 49.8222C85 45.8815 83.224 42.2222 80.1704 39.814ZM42.4688 35.7481C43.6217 35.7481 44.5253 34.8099 44.5253 33.6839C44.5253 32.5267 43.5905 31.6198 42.4688 31.5885C42.0326 31.5885 41.2848 31.0881 40.4747 29.7119C41.1602 29.4305 41.8768 29.2741 42.6246 29.2741C44.1202 29.2741 45.5224 29.8683 46.5817 30.9317C47.6411 31.9951 48.2331 33.4025 48.202 34.9037C48.202 36.4049 47.61 37.8123 46.5506 38.8757C45.4912 39.9391 44.0891 40.5021 42.5935 40.5021C41.0979 40.5021 39.6957 39.9078 38.6364 38.8444C37.577 37.7811 36.985 36.3737 37.0161 34.8724C37.0161 34.0905 37.1719 33.3399 37.4835 32.6519C38.8545 34.6848 40.5682 35.7169 42.4688 35.7481ZM32.8721 34.8724C32.8721 37.4996 33.8691 39.9391 35.7075 41.7844C37.5458 43.6296 39.9762 44.6617 42.6246 44.6617C45.2108 44.6617 47.6723 43.6609 49.5106 41.8156C51.349 39.9704 52.3772 37.5309 52.3772 34.9037C52.3772 32.2765 51.3801 29.837 49.5418 27.9918C47.7034 26.1465 45.2731 25.1144 42.6246 25.1144C41.3471 25.1144 40.132 25.3646 38.9791 25.8337C38.4806 23.9259 38.169 21.7053 38.0755 19.3909C39.353 18.6091 40.7863 18.1712 42.2819 18.1399C44.3383 18.0774 46.3636 18.7342 48.015 19.9852L77.6155 43.1292C79.6719 44.7556 80.8559 47.1638 80.8559 49.7909L80.7001 106.681C80.7001 108.433 79.2669 109.872 77.522 109.872L7.32221 109.746C6.48094 109.746 5.67082 109.402 5.07881 108.808C4.4868 108.214 4.14406 107.401 4.14406 106.556L4.29985 49.6658C4.29985 47.0387 5.48387 44.5992 7.57148 43.0041L34.1496 22.3621C34.3988 24.5202 34.835 26.5531 35.3959 28.3358C33.7757 30.1185 32.8721 32.4329 32.8721 34.8724Z" fill="#622B0A"/>
<path d="M40.5371 78.2831V94.9218C37.3901 94.7967 35.8322 93.7646 34.5547 92.9514C33.6511 92.3572 32.8722 91.8255 31.7816 91.8255C30.0679 91.8255 29.2578 93.2642 29.2578 94.2337C29.2578 96.9547 33.4642 99.8321 40.5371 100.114V102.209C40.5371 103.304 41.1915 104.023 42.2197 104.023C43.2479 104.023 43.9022 103.304 43.9022 102.209V99.9572C50.8817 99.0189 55.7113 93.2955 55.7113 85.7893C55.7113 78.1267 49.5107 75.7811 44.058 73.7481L43.9022 73.6856V60.7687C46.3014 60.9564 47.5789 61.8321 48.6072 62.5514C49.355 63.0518 49.9781 63.4897 50.7882 63.4897C52.4396 63.4897 53.1874 62.1448 53.1874 60.8938C53.1874 58.1416 48.3267 55.8584 43.8711 55.5769V53.4815C43.8711 52.3868 43.2168 51.6675 42.1885 51.6675C41.1603 51.6675 40.506 52.3868 40.506 53.4815V55.7333C34.212 56.609 30.0056 61.0502 30.0056 66.8988C30.0368 74.4362 35.7388 76.6255 40.5371 78.2831ZM35.583 66.5234C35.583 63.5835 37.3278 61.6444 40.5371 60.9876V72.3095C37.0162 70.8082 35.583 69.0881 35.583 66.5234ZM50.1962 86.2897C50.1962 90.2304 47.5478 93.7021 43.9334 94.6716V79.5029C47.4231 80.8165 50.1962 82.3802 50.1962 86.2897Z" fill="#622B0A"/>
</g>
<defs>
<clipPath id="clip0_2_1483">
<rect width="85" height="114" fill="white"/>
</clipPath>
</defs>
</svg>
