<svg width="127" height="96" viewBox="0 0 127 96" fill="none" xmlns="http://www.w3.org/2000/svg">
<path d="M111.952 74.3226C121.671 66.1184 127 55.326 127 43.8864C127 19.6899 102.821 0 73.0778 0C48.9689 0 27.7006 13.1266 21.1745 32.0077C8.09889 37.6235 0 48.5546 0 60.6644C0 67.7131 2.86396 74.6461 8.05194 80.2619L0.352126 92.5104C-0.164325 93.3423 -0.0939002 94.3823 0.516451 95.1449C0.962477 95.6765 1.61978 96 2.32403 96C2.58226 96 2.84048 95.9538 3.09871 95.8613L21.3623 89.4136C26.9494 91.7939 33.2641 93.0419 39.6024 93.0419C47.936 93.0419 55.9176 90.9389 62.6784 86.9639C66.0823 87.5185 69.58 87.7959 73.0778 87.7959C80.3081 87.7959 87.3272 86.6635 93.9237 84.3987L115.286 93.6659C115.591 93.8045 115.896 93.8507 116.225 93.8507C116.812 93.8507 117.399 93.6196 117.821 93.2268C118.502 92.5797 118.713 91.6322 118.385 90.754L111.952 74.3226ZM12.9348 81.1632C13.4982 80.2619 13.3573 79.0833 12.5826 78.3438C7.44159 73.3751 4.62458 67.1122 4.62458 60.6644C4.62458 51.4203 10.2116 42.9851 19.6721 37.8084C19.6251 38.1088 19.5782 38.4324 19.5312 38.7328L19.5078 38.9639C19.4843 39.195 19.4373 39.4261 19.4139 39.6803C19.3669 40.1194 19.32 40.5585 19.2965 40.9976C19.2965 41.09 19.273 41.1825 19.273 41.2749C19.2495 41.4367 19.2495 41.6216 19.2261 41.7833C19.1791 42.546 19.1556 43.2393 19.1556 43.9326C19.1556 44.5566 19.1791 45.2268 19.2261 45.9894C19.2261 46.1974 19.2495 46.3823 19.273 46.5903L19.2965 46.8214C19.32 47.2374 19.3669 47.6071 19.4139 47.9538C19.4608 48.2773 19.5078 48.6471 19.5547 49.0631C19.5782 49.2942 19.6251 49.5484 19.6721 49.7795C19.766 50.3341 19.8364 50.7732 19.9303 51.1892C22.4187 63.3452 31.1749 74.1608 43.9922 80.8628C44.18 80.9552 44.3678 81.0708 44.5556 81.1632C45.0017 81.3943 45.4242 81.6023 45.8233 81.7872C46.1285 81.9259 46.4336 82.0645 46.7388 82.2263L46.8797 82.2956C47.1848 82.4343 47.49 82.5729 47.7952 82.7116C48.2882 82.9196 48.8046 83.1276 49.2272 83.3125C49.3211 83.3356 49.3915 83.3818 49.4854 83.428C49.6262 83.4742 49.7436 83.5436 49.8845 83.5898C50.5887 83.8671 51.3399 84.1444 52.0911 84.3987C52.185 84.4218 52.2789 84.468 52.3963 84.4911C52.4667 84.5142 52.5372 84.5373 52.5841 84.5604C53.2179 84.7684 53.8048 84.9533 54.3682 85.1382C54.5325 85.1844 54.6969 85.2306 54.8847 85.2768L55.0959 85.3462C55.2603 85.3924 55.4246 85.4386 55.5889 85.4848C50.6826 87.4954 45.2129 88.5585 39.6024 88.5585C33.5693 88.5585 27.6301 87.3105 22.4187 84.9533C21.8553 84.6991 21.2449 84.676 20.6815 84.884L7.79372 89.4367L12.9348 81.1632ZM54.8142 80.4237C54.6264 80.3775 54.4621 80.3081 54.2978 80.2619C53.8048 80.1001 53.3118 79.9153 52.9362 79.7997L52.8423 79.7535C52.678 79.6842 52.4902 79.6379 52.3259 79.5686C51.8329 79.3837 51.3634 79.1988 50.8704 79.014C50.753 78.9677 50.6122 78.9215 50.4948 78.8522L50.4479 78.8291C49.8375 78.5749 49.3211 78.3438 48.8281 78.1358L48.7577 78.1127C42.5133 75.2701 37.0201 71.272 32.8416 66.5575C28.663 61.8199 25.7756 56.3428 24.5314 50.7039L24.5079 50.6346C24.414 50.2186 24.3201 49.7564 24.2262 49.2017C24.2028 49.0168 24.1793 48.8551 24.1323 48.6702C24.0619 48.2542 24.015 47.8844 23.968 47.5378C23.9211 47.2374 23.8976 46.9138 23.8741 46.5903L23.8506 46.3592C23.8272 46.1512 23.8037 45.9663 23.8037 45.7583C23.7567 45.0881 23.7567 44.4872 23.7567 43.9095C23.7567 43.2162 23.7802 42.4767 23.8506 41.6678C23.8506 41.5522 23.8741 41.4136 23.8741 41.298C23.8741 41.2056 23.8976 41.1363 23.8976 41.0438C23.9445 40.4429 24.015 39.9114 24.0854 39.403C24.1089 39.1719 24.1558 38.9408 24.2028 38.7097C24.2967 38.1781 24.3906 37.6466 24.5079 37.1151L24.5314 36.9533C24.5549 36.7915 24.6018 36.6298 24.6488 36.468C24.7896 35.8902 24.954 35.3125 25.1418 34.6885C27.6771 26.2764 33.7806 18.65 42.302 13.196C51.1287 7.55705 61.7629 4.57583 73.0543 4.57583C100.238 4.57583 122.352 22.2321 122.352 43.9095C122.352 54.4709 117.164 64.4083 107.727 71.8498C106.929 72.4738 106.647 73.5137 107.023 74.4381L112.046 87.2874L94.9331 79.869C94.3932 79.6379 93.7828 79.6148 93.1959 79.8228C86.8342 82.0876 80.0734 83.2431 73.0543 83.2431C69.3688 83.2431 65.6597 82.8965 62.0211 82.2263C60.3778 81.9258 58.7111 81.5561 57.1148 81.117L56.8096 81.0477C56.6453 81.0014 56.5044 80.9552 56.3401 80.909C55.941 80.7935 55.5185 80.6548 55.1194 80.5392L54.8142 80.4237Z" fill="#622B0A"/>
<path d="M47.7482 35.0814C42.8185 35.0814 38.7808 39.0332 38.7808 43.9095C38.7808 48.7626 42.795 52.7376 47.7482 52.7376C52.678 52.7376 56.7157 48.7857 56.7157 43.9095C56.7157 39.0332 52.7015 35.0814 47.7482 35.0814ZM52.0676 43.8864C52.0676 46.2436 50.1192 48.1387 47.7482 48.1387C45.3538 48.1387 43.4288 46.2205 43.4288 43.8864C43.4288 41.5291 45.3772 39.6341 47.7482 39.6341C50.1427 39.6341 52.0676 41.5522 52.0676 43.8864Z" fill="#622B0A"/>
<path d="M73.0778 52.7145C78.0076 52.7145 82.0453 48.7627 82.0453 43.8864C82.0453 39.0333 78.0311 35.0583 73.0778 35.0583C68.1246 35.0583 64.1104 39.0101 64.1104 43.8864C64.1104 48.7627 68.1246 52.7145 73.0778 52.7145ZM68.7349 43.8864C68.7349 41.5292 70.6834 39.6341 73.0543 39.6341C75.4253 39.6341 77.3738 41.5523 77.3738 43.8864C77.3738 46.2436 75.4253 48.1387 73.0543 48.1387C70.6834 48.1387 68.7349 46.2436 68.7349 43.8864Z" fill="#622B0A"/>
<path d="M98.4074 52.7145C103.337 52.7145 107.375 48.7627 107.375 43.8864C107.375 39.0333 103.361 35.0583 98.4074 35.0583C93.4542 35.0583 89.4399 39.0333 89.4399 43.8864C89.4399 48.7627 93.4542 52.7145 98.4074 52.7145ZM94.0645 43.8864C94.0645 41.5292 96.013 39.6341 98.3839 39.6341C100.778 39.6341 102.703 41.5523 102.703 43.8864C102.703 46.2436 100.755 48.1387 98.3839 48.1387C96.013 48.1618 94.0645 46.2436 94.0645 43.8864Z" fill="#622B0A"/>
</svg>
