<svg width="96" height="96" viewBox="0 0 96 96" fill="none" xmlns="http://www.w3.org/2000/svg">
<g clip-path="url(#clip0_2_1493)">
<path d="M70.8923 68.2338C67.6431 68.2338 64.2462 67.4954 60.7016 66.1661C60.1108 65.8708 59.6677 65.4277 59.3723 64.8369C56.2708 56.7138 56.7139 49.7723 60.4062 44.0123C69.12 30.8677 92.7508 29.5385 93.637 29.5385C94.2277 29.5385 94.8185 29.6861 95.2616 30.1292C95.7046 30.5723 96 31.1631 95.8523 31.7538C95.8523 32.7877 94.5231 56.4184 81.3785 64.9846C78.277 67.2 74.7323 68.2338 70.8923 68.2338ZM63.2123 62.3261C69.5631 64.5415 74.88 64.2461 79.1631 61.44C88.1723 55.5323 90.8308 40.32 91.4216 34.1169C85.3662 34.8554 70.0062 37.3661 64.0985 46.3754C61.2923 50.8061 60.997 56.1231 63.2123 62.3261Z" fill="#622B0A"/>
<path d="M25.1077 68.2338C21.2677 68.2338 17.7231 67.2 14.4738 65.1323C1.32923 56.5661 0 32.7877 0 31.9015C0 31.3108 0.147692 30.72 0.590769 30.2769C1.03385 29.8338 1.77231 29.5385 2.36308 29.5385C3.39692 29.5385 27.0277 30.8677 35.5938 44.0123C39.2862 49.7723 39.7292 56.7138 36.6277 64.8369C36.3323 65.4277 35.8892 65.8708 35.2985 66.1661C31.7538 67.6431 28.3569 68.2338 25.1077 68.2338ZM4.72615 34.2646C5.46462 40.32 7.97538 55.68 16.9846 61.5877C21.2677 64.3938 26.5846 64.6892 32.9354 62.4738C35.1508 56.1231 34.8554 50.8061 32.0492 46.5231C25.9938 37.5138 10.7815 34.8554 4.72615 34.2646Z" fill="#622B0A"/>
<path d="M51.397 89.7969C51.2493 89.7969 51.2493 89.7969 51.1016 89.7969C49.9201 89.6492 49.0339 88.6154 49.1816 87.2861C51.5447 67.6431 64.3939 55.9754 71.9262 50.6584C72.9601 49.92 74.2893 50.2154 75.0278 51.2492C75.7662 52.2831 75.4709 53.6123 74.437 54.3507C67.4955 59.0769 55.6801 69.8584 53.4647 87.8769C53.4647 88.9107 52.4309 89.7969 51.397 89.7969Z" fill="#622B0A"/>
<path d="M44.6033 89.6492C43.5694 89.6492 42.5356 88.763 42.3879 87.7292C42.0925 85.2184 41.5017 82.7076 40.9109 80.3446C37.071 67.3476 28.3571 58.9292 21.5633 54.203C20.5294 53.4645 20.3817 52.1353 20.9725 51.1015C21.7109 50.0676 23.0402 49.9199 24.074 50.5107C31.3109 55.6799 40.911 64.8369 45.0463 79.0153C45.7848 81.6738 46.3756 84.3323 46.671 86.9907C46.8186 88.1723 45.9325 89.3538 44.7509 89.5015C44.8986 89.6492 44.751 89.6492 44.6033 89.6492Z" fill="#622B0A"/>
<path d="M47.9999 42.8308C39.4337 42.8308 32.4922 35.8892 32.4922 27.3231C32.4922 14.7692 45.9322 1.18153 46.3753 0.590763C47.2614 -0.295391 48.5906 -0.295391 49.4768 0.590763C50.0676 1.18153 63.5076 14.7692 63.5076 27.3231C63.5076 35.8892 56.566 42.8308 47.9999 42.8308ZM47.9999 5.46461C44.603 9.30461 36.923 18.9046 36.923 27.3231C36.923 33.3785 41.9445 38.4 47.9999 38.4C54.0553 38.4 59.0768 33.3785 59.0768 27.3231C59.0768 18.9046 51.3968 9.30461 47.9999 5.46461Z" fill="#622B0A"/>
<path d="M48.0001 36.923C46.8185 36.923 45.7847 35.8892 45.7847 34.7077C45.7847 33.5261 46.8185 32.4923 48.0001 32.4923C50.8062 32.4923 53.1693 30.1292 53.1693 27.3231C53.1693 26.1415 54.2031 25.1077 55.3847 25.1077C56.5662 25.1077 57.6001 26.1415 57.6001 27.3231C57.6001 32.64 53.317 36.923 48.0001 36.923Z" fill="#622B0A"/>
<path d="M62.7695 96C61.5879 96 60.5541 94.9661 60.5541 93.7846C60.5541 90.24 58.9295 86.6954 56.271 84.3323C55.3849 83.5938 55.2372 82.1169 56.1233 81.2308C56.8618 80.3446 58.3387 80.1969 59.2249 81.0831C62.9172 84.3323 64.9849 88.9108 64.9849 93.7846C64.9849 94.9661 63.951 96 62.7695 96ZM33.231 96C32.0495 96 31.0156 94.9661 31.0156 93.7846C31.0156 88.9108 33.0833 84.1846 36.9233 80.9354C37.8095 80.1969 39.2864 80.1969 40.0249 81.2308C40.7633 82.1169 40.7633 83.5938 39.7295 84.3323C36.9233 86.6954 35.4464 90.24 35.4464 93.7846C35.4464 94.9661 34.4125 96 33.231 96Z" fill="#622B0A"/>
<path d="M33.2308 96H2.21538C1.03385 96 0 94.9661 0 93.7846C0 92.6031 1.03385 91.5692 2.21538 91.5692H33.2308C34.4123 91.5692 35.4462 92.6031 35.4462 93.7846C35.4462 94.9661 34.4123 96 33.2308 96Z" fill="#622B0A"/>
<path d="M93.7845 96H62.7691C61.5876 96 60.5537 94.9661 60.5537 93.7846C60.5537 92.6031 61.5876 91.5692 62.7691 91.5692H93.7845C94.966 91.5692 95.9999 92.6031 95.9999 93.7846C95.9999 94.9661 94.966 96 93.7845 96Z" fill="#622B0A"/>
<path d="M53.9077 90.0923H42.0923C40.9108 90.0923 39.877 89.0585 39.877 87.8769C39.877 86.6954 40.9108 85.6616 42.0923 85.6616H53.9077C55.0893 85.6616 56.1231 86.6954 56.1231 87.8769C56.1231 89.0585 55.0893 90.0923 53.9077 90.0923Z" fill="#622B0A"/>
</g>
<defs>
<clipPath id="clip0_2_1493">
<rect width="96" height="96" fill="white"/>
</clipPath>
</defs>
</svg>
